<svg id="Layer_1" data-name="Layer 1" xmlns="http://www.w3.org/2000/svg" xmlns:xlink="http://www.w3.org/1999/xlink" viewBox="0 0 600 350"><defs><style>.cls-1{fill:none;}.cls-2{clip-path:url(#clip-path);}.cls-3{fill:#fff;}.cls-4{fill:#bd0034;}.cls-5{fill:#1a237b;}</style><clipPath id="clip-path"><rect class="cls-1" x="0.26" y="0.11" width="599.74" height="349.83"/></clipPath></defs><title>flag</title><g id="UNITED_KINGDOM" data-name="UNITED KINGDOM"><g class="cls-2"><rect class="cls-3" x="0.26" y="0.11" width="599.74" height="349.83"/><polygon class="cls-4" points="401.83 126.59 600 15.65 600 0.1 586.34 0.1 360.39 126.59 401.83 126.59"/><polygon class="cls-4" points="392.48 230.47 600 346.6 600 323.39 433.94 230.47 392.48 230.47"/><polygon class="cls-4" points="0.26 26.73 177.78 126.59 219.26 126.59 0.26 3.51 0.26 26.73"/><polygon class="cls-4" points="209.86 230.47 0.26 347.91 0.26 349.94 38.13 349.94 251.35 230.47 209.86 230.47"/><polygon class="cls-5" points="558.96 0.1 348.97 0.1 348.97 117.7 558.96 0.1"/><polygon class="cls-5" points="256.26 0.1 47.11 0.1 256.26 117.7 256.26 0.1"/><polygon class="cls-5" points="600 126.59 600 46.33 457.55 126.59 600 126.59"/><polygon class="cls-5" points="600 309.87 600 230.47 457.55 230.47 600 309.87"/><polygon class="cls-5" points="58.98 349.94 256.26 349.94 256.26 239.39 58.98 349.94"/><polygon class="cls-5" points="348.97 349.94 546.88 349.94 348.97 239.39 348.97 349.94"/><polygon class="cls-5" points="0.26 230.47 0.26 313.45 147.66 230.47 0.26 230.47"/><polygon class="cls-5" points="0.26 126.59 147.66 126.59 0.26 43.49 0.26 126.59"/><polygon class="cls-4" points="274.81 0.1 274.81 147.37 0.26 147.37 0.26 209.74 274.81 209.74 274.81 349.94 330.42 349.94 330.42 209.74 600 209.74 600 147.37 330.42 147.37 330.42 0.1 274.81 0.1"/></g></g></svg>