<svg id="Layer_2" data-name="Layer 2" xmlns="http://www.w3.org/2000/svg" viewBox="0 0 850.39 431.2"><defs><style>.cls-1{fill:#1a6d57;opacity:0.24;}.cls-2{fill:#509b24;}.cls-3{fill:#c5c7c9;}.cls-4{fill:#9d9fa3;}.cls-5{fill:#f2f2f1;}.cls-6{fill:#b8bcc1;}.cls-7{fill:#888c92;}.cls-8{fill:#adafb2;}.cls-9{fill:#022d6e;}.cls-10{fill:#fdfdfd;}</style></defs><title>biosykli</title><ellipse class="cls-1" cx="418.39" cy="391.29" rx="394.58" ry="21.36"/><path class="cls-2" d="M579.22,79.33s-31.23,8.4-37-35.44C542.26,43.89,579.85,41.78,579.22,79.33Z"/><path class="cls-2" d="M578,79.45s23.51-2.71,19.67-35.06C597.63,44.39,570.77,53.28,578,79.45Z"/><rect class="cls-3" x="404.89" y="37.82" width="129.8" height="350.51"/><rect class="cls-4" x="346.43" y="37.82" width="58.98" height="350.51"/><rect class="cls-5" x="555.58" y="97.56" width="39.21" height="259.77"/><rect class="cls-6" x="571.81" y="218.44" width="202.94" height="167.94"/><rect class="cls-7" x="523.18" y="218.44" width="48.63" height="167.94"/><rect class="cls-5" x="586.68" y="235.3" width="76.64" height="19.35"/><rect class="cls-5" x="675.54" y="235.3" width="76.64" height="19.35"/><rect class="cls-5" x="586.68" y="263.73" width="76.64" height="19.35"/><rect class="cls-8" x="271.5" y="228.22" width="311.43" height="13.02" transform="translate(661.94 -192.49) rotate(90)"/><rect class="cls-8" x="311.7" y="228.22" width="311.43" height="13.02" transform="translate(702.14 -232.69) rotate(90)"/><rect class="cls-8" x="351.45" y="228.22" width="311.43" height="13.02" transform="translate(741.9 -272.44) rotate(90)"/><rect class="cls-5" x="675.54" y="263.73" width="76.64" height="19.35"/><g id="jHnCOo.tif"><path class="cls-9" d="M737.31,347.4H732.1a9.3,9.3,0,0,0-1.14-.34,24.62,24.62,0,0,1-20.46-27.72c1.54-11.38,10.74-20,22.59-21.13,10.77-1,21.55,6.05,25.06,16.52.59,1.77.92,3.62,1.37,5.44v5.41a5.21,5.21,0,0,0-.24.66c-1.9,10.4-7.88,17.19-18,20.29C740,346.93,738.64,347.11,737.31,347.4Zm-5.89-22.65-.83-.23c.11-.85.26-1.69.32-2.54a6,6,0,0,0-.16-1.26,5,5,0,0,0-1,.91c-.64,1-1.16,2.05-1.82,3-.17.25-.63.31-1,.45-.12-.36-.44-.83-.32-1.08a23.11,23.11,0,0,1,2-3.67c.28-.39,1.11-.4,1.7-.55a3.6,3.6,0,0,1,.74,0c-.12-.27-.24-.78-.37-.78a5.29,5.29,0,0,0-2.43.14c-2.39,1.18-4.12,4.93-3.65,7.55.23,1.29,1.23,1.73,2.23.9a18.4,18.4,0,0,0,1.75-1.87c.39.42.78,1.18,1.2,1.2a2.1,2.1,0,0,0,1.63-.88c1.19-2.34,2.22-4.76,3.29-7.1l4.27-.29c-.49.52-1.08,1.13-1.66,1.77-1.3,1.42-2.62,2.82-3.86,4.29-.23.27-.11.84-.15,1.27a10.45,10.45,0,0,1,1-.46c.9-.31,1.88-1,2.68-.82,2,.41,3.48.14,4.34-1.31,1.22.15,2.37.65,3.19.32a8.25,8.25,0,0,0,3.4-2.5,44.41,44.41,0,0,0,3.06-5.59,19.54,19.54,0,0,1,.12,2,18.57,18.57,0,0,0-.23,3.22,2,2,0,0,0,1.44,1.16c1.65.11,3.75-3.08,3.16-4.7a14.42,14.42,0,0,1-1.23,1.93,4,4,0,0,1-1.28.66c-.13-.43-.48-.93-.36-1.27.8-2.4-.67-3.82-2.15-5.21a26.28,26.28,0,0,1-1.62,4.69,12.91,12.91,0,0,1-3.27,3.75,1.41,1.41,0,0,1-2.36-1.28,13.39,13.39,0,0,1,1.44-3.76c.15-.3.81-.34,1.24-.5,0,.48.14,1.07-.08,1.41a17.24,17.24,0,0,1-1.74,1.89,3.37,3.37,0,0,0,3.61-2.11,2.63,2.63,0,0,0-.06-2.19,3,3,0,0,0-2.15-.53,3.12,3.12,0,0,0-1.6.82,6.91,6.91,0,0,0-2.68,6,1.49,1.49,0,0,1-2.1,1.63c-.75-.22-1.51-.35-2.32-.53.44-.49.9-1,1.34-1.48.88-1,1.8-2,2.57-3.1a1.53,1.53,0,0,0-.1-1.39c-.12-.2-.84-.13-1.24,0a21.53,21.53,0,0,1-2.92.94,8.35,8.35,0,0,1-2.42-.38,1,1,0,0,0-.52,0c-.08,0-.11.26-.11.4a10.5,10.5,0,0,1-.16,2.46C732.71,321.71,732,323.22,731.42,324.75Zm-8.17,9.81a15.92,15.92,0,0,0,1.35,1.11c6.08,4,12.34,3.53,18.6.55a13.21,13.21,0,0,0,7.3-7.81c.56-1.68-.24-3.15-1.71-3.17-1.32,0-1.87.91-2.31,2A16.35,16.35,0,0,1,732,337,18.31,18.31,0,0,1,723.25,334.56Zm-3.39-12.81c.6-2.31,1.19-4.56,1.75-6.81a3.12,3.12,0,0,0,0-.86c-.27.12-.68.17-.79.38a13.31,13.31,0,0,0-1.41,2.92c-.74,2.71-1.44,5.44-1.94,8.21s-.7,5.31-1,8c0,.34.38.73.59,1.09.31-.28.8-.51.9-.85a24.78,24.78,0,0,0,1.14-4.74c.28-3.21.91-6.11,4.26-7.53a4.3,4.3,0,0,0,1-.55,4,4,0,0,0,.56-.76c-.3-.06-.64-.25-.87-.16C722.74,320.55,721.43,321.11,719.86,321.75Zm15.93-14.45c-1.56.66-3.22,1.47-5,2-1.33.43-2.78.46-4.15.8-2.62.66-5.28,1.27-7.83,2.17a5.78,5.78,0,0,0-3.44,3.91,4.2,4.2,0,0,0,.64-.4,9.47,9.47,0,0,1,5.78-2.79c2.76-.44,5.54-.71,8.29-1.18C733.56,311.25,735.55,309.45,735.79,307.3Z"/><path class="cls-9" d="M731.42,324.75c.61-1.53,1.29-3,1.78-4.61a10.5,10.5,0,0,0,.16-2.46c0-.14,0-.38.11-.4a1,1,0,0,1,.52,0,8.35,8.35,0,0,0,2.42.38,21.53,21.53,0,0,0,2.92-.94c.4-.11,1.12-.18,1.24,0a1.53,1.53,0,0,1,.1,1.39c-.77,1.09-1.69,2.08-2.57,3.1-.44.51-.9,1-1.34,1.48.81.18,1.57.31,2.32.53a1.49,1.49,0,0,0,2.1-1.63,6.91,6.91,0,0,1,2.68-6,3.12,3.12,0,0,1,1.6-.82,3,3,0,0,1,2.15.53,2.63,2.63,0,0,1,.06,2.19,3.37,3.37,0,0,1-3.61,2.11,17.24,17.24,0,0,0,1.74-1.89c.22-.34.06-.93.08-1.41-.43.16-1.09.2-1.24.5a13.39,13.39,0,0,0-1.44,3.76,1.41,1.41,0,0,0,2.36,1.28,12.91,12.91,0,0,0,3.27-3.75,26.28,26.28,0,0,0,1.62-4.69c1.48,1.39,2.95,2.81,2.15,5.21-.12.34.23.84.36,1.27a4,4,0,0,0,1.28-.66,14.42,14.42,0,0,0,1.23-1.93c.59,1.62-1.51,4.81-3.16,4.7a2,2,0,0,1-1.44-1.16,18.57,18.57,0,0,1,.23-3.22,19.54,19.54,0,0,0-.12-2,44.41,44.41,0,0,1-3.06,5.59,8.25,8.25,0,0,1-3.4,2.5c-.82.33-2-.17-3.19-.32-.86,1.45-2.38,1.72-4.34,1.31-.8-.16-1.78.51-2.68.82a10.45,10.45,0,0,0-1,.46c0-.43-.08-1,.15-1.27,1.24-1.47,2.56-2.87,3.86-4.29.58-.64,1.17-1.25,1.66-1.77l-4.27.29c-1.07,2.34-2.1,4.76-3.29,7.1a2.1,2.1,0,0,1-1.63.88c-.42,0-.81-.78-1.2-1.2a18.4,18.4,0,0,1-1.75,1.87c-1,.83-2,.39-2.23-.9-.47-2.62,1.26-6.37,3.65-7.55a5.29,5.29,0,0,1,2.43-.14c.13,0,.25.51.37.78a3.6,3.6,0,0,0-.74,0c-.59.15-1.42.16-1.7.55a23.11,23.11,0,0,0-2,3.67c-.12.25.2.72.32,1.08.34-.14.8-.2,1-.45.66-1,1.18-2.05,1.82-3a5,5,0,0,1,1-.91,6,6,0,0,1,.16,1.26c-.06.85-.21,1.69-.32,2.54Z"/><path class="cls-10" d="M723.25,334.56A18.31,18.31,0,0,0,732,337a16.35,16.35,0,0,0,14.44-9.75c.44-1.07,1-2,2.31-2,1.47,0,2.27,1.49,1.71,3.17a13.21,13.21,0,0,1-7.3,7.81c-6.26,3-12.52,3.43-18.6-.55A15.92,15.92,0,0,1,723.25,334.56Z"/><path class="cls-9" d="M719.86,321.75c1.57-.64,2.88-1.2,4.22-1.69.23-.09.57.1.87.16a4,4,0,0,1-.56.76,4.3,4.3,0,0,1-1,.55c-3.35,1.42-4,4.32-4.26,7.53A24.78,24.78,0,0,1,718,333.8c-.1.34-.59.57-.9.85-.21-.36-.63-.75-.59-1.09.26-2.66.49-5.34,1-8s1.2-5.5,1.94-8.21a13.31,13.31,0,0,1,1.41-2.92c.11-.21.52-.26.79-.38a3.12,3.12,0,0,1,0,.86C721.05,317.19,720.46,319.44,719.86,321.75Z"/><path class="cls-9" d="M735.79,307.3c-.24,2.15-2.23,3.95-5.67,4.55-2.75.47-5.53.74-8.29,1.18a9.47,9.47,0,0,0-5.78,2.79,4.2,4.2,0,0,1-.64.4,5.78,5.78,0,0,1,3.44-3.91c2.55-.9,5.21-1.51,7.83-2.17,1.37-.34,2.82-.37,4.15-.8C732.57,308.77,734.23,308,735.79,307.3Z"/><path class="cls-9" d="M745.19,318.63c-.24,2.14-2.23,3.95-5.67,4.54-2.75.48-5.53.75-8.29,1.19a9.51,9.51,0,0,0-5.78,2.78,3,3,0,0,1-.64.4,5.74,5.74,0,0,1,3.44-3.9c2.55-.91,5.2-1.51,7.83-2.17,1.37-.34,2.82-.37,4.15-.8C742,320.1,743.63,319.28,745.19,318.63Z"/><path class="cls-9" d="M735.6,308.12c-.24,2.15-2.24,3.95-5.67,4.54-2.75.48-5.53.75-8.29,1.19a9.47,9.47,0,0,0-5.78,2.79,4.2,4.2,0,0,1-.64.4,5.76,5.76,0,0,1,3.44-3.91c2.55-.9,5.2-1.51,7.83-2.17,1.37-.34,2.82-.37,4.15-.8C732.38,309.59,734,308.77,735.6,308.12Z"/></g><rect class="cls-6" x="114.45" y="271.26" width="249.23" height="115.37"/><rect class="cls-7" x="79.74" y="271.04" width="36.12" height="115.59"/><rect class="cls-8" x="275.27" y="317.25" width="56.1" height="68.47" transform="translate(606.63 702.97) rotate(-180)"/><rect class="cls-8" x="162.19" y="317.25" width="56.1" height="68.47" transform="translate(380.47 702.97) rotate(-180)"/><rect class="cls-5" x="317.84" y="288.05" width="26.87" height="8.08" transform="translate(662.55 584.18) rotate(-180)"/><rect class="cls-5" x="276.77" y="288.05" width="26.87" height="8.08" transform="translate(580.41 584.18) rotate(-180)"/><rect class="cls-5" x="235.7" y="288.05" width="26.87" height="8.08" transform="translate(498.27 584.18) rotate(-180)"/><rect class="cls-5" x="194.63" y="288.05" width="26.87" height="8.08" transform="translate(416.13 584.18) rotate(-180)"/><rect class="cls-5" x="153.56" y="288.05" width="26.87" height="8.08" transform="translate(334 584.18) rotate(-180)"/></svg>