<svg id="Layer_2" data-name="Layer 2" xmlns="http://www.w3.org/2000/svg" viewBox="0 0 1047.4 705.03"><defs><style>.cls-1{fill:#1a6d57;opacity:0.24;}.cls-2{fill:#59d31a;}.cls-3{fill:#f2f2f1;}.cls-4{fill:#9d9fa3;}.cls-5{fill:#b8bcc1;}.cls-6{fill:#f7f7f6;}.cls-7{fill:#cc9376;}.cls-8{fill:#a56b4a;}.cls-9{fill:#e4e4e4;}.cls-10{fill:#bbe0ef;}.cls-11{fill:#cde7f9;}.cls-12{fill:none;stroke:#022d6e;stroke-width:58.6px;}.cls-12,.cls-14,.cls-15{stroke-miterlimit:10;}.cls-13{fill:#1a316e;}.cls-14,.cls-15{fill:#fff936;stroke:#f4a100;}.cls-14{stroke-width:4.65px;}.cls-15{stroke-width:6.97px;}</style></defs><title>biosykli</title><ellipse class="cls-1" cx="532.67" cy="619.47" rx="484.76" ry="25.14"/><path class="cls-2" d="M929.78,229.44s-40.59,10.92-48-46.08C881.73,183.36,930.61,180.63,929.78,229.44Z"/><path class="cls-2" d="M928.15,229.59s30.55-3.52,25.57-45.57C953.72,184,918.8,195.57,928.15,229.59Z"/><rect class="cls-3" x="199.99" y="159.25" width="455.67" height="440.59"/><rect class="cls-4" x="91.83" y="159.25" width="112.12" height="451.62"/><rect class="cls-5" x="899.05" y="253.14" width="50.97" height="337.7"/><rect class="cls-6" x="703.91" y="394.07" width="263.83" height="117.22"/><rect class="cls-7" x="703.91" y="495.17" width="263.83" height="117.22"/><rect class="cls-7" x="203.95" y="441.14" width="452.37" height="171.25"/><rect class="cls-8" x="640.69" y="495.17" width="63.22" height="117.22"/><rect class="cls-5" x="223.82" y="517" width="66.93" height="95.39"/><rect class="cls-5" x="323.58" y="517" width="66.93" height="95.39"/><rect class="cls-5" x="413.11" y="517" width="66.93" height="95.39"/><rect class="cls-8" x="91.83" y="441.14" width="111.43" height="169.73"/><rect class="cls-9" x="640.69" y="394.07" width="63.22" height="101.11"/><rect class="cls-5" x="723.24" y="415.98" width="99.64" height="25.16"/><rect class="cls-5" x="838.77" y="415.98" width="99.64" height="25.16"/><rect class="cls-5" x="723.24" y="452.95" width="99.64" height="25.16"/><rect class="cls-10" x="352.69" y="402.19" width="404.87" height="27.59" transform="translate(971.1 -139.13) rotate(90)"/><rect class="cls-11" x="392.12" y="389.6" width="404.87" height="51.29" transform="translate(1009.8 -179.32) rotate(90)"/><rect class="cls-5" x="838.77" y="452.95" width="99.64" height="25.16"/><rect class="cls-5" x="228.13" y="402.66" width="99.64" height="25.16"/><rect class="cls-5" x="228.13" y="352.37" width="99.64" height="25.16"/><rect class="cls-5" x="228.13" y="291.81" width="99.64" height="25.16"/><rect class="cls-5" x="228.13" y="236.92" width="99.64" height="25.16"/><path class="cls-12" d="M313.8,156.88a174.15,174.15,0,0,1,240.38-.83"/><path class="cls-5" d="M981.29,613.29,805.55,614c-2.66,0-19.2-7-19.2-9.67V563.58c0-2.66,10.89-8.55,13.54-8.55l16.17,0c2.66,0,6.41,35,2,34.53l168.06,18.86A4.85,4.85,0,0,1,981.29,613.29Z"/><path class="cls-13" d="M980.06,610.87H834.39c-5.74,0-10.44-3-16.33-8.39V545.57c-.46.09,10.59-.84,16.33-.84H980.06c5.75,0,10.45,5,10.45,11.14v45.86C990.51,607.86,985.81,610.87,980.06,610.87Z"/><path class="cls-14" d="M955.23,562.41a17.6,17.6,0,0,1-17.81,30.36"/><path class="cls-15" d="M928.63,569.38a26.38,26.38,0,0,1-52.43-5.9"/><circle cx="818.06" cy="610.87" r="13.7"/><circle cx="933.58" cy="613.53" r="13.7"/><circle cx="962.92" cy="613.53" r="13.7"/><rect class="cls-11" x="791.28" y="563.48" width="18.02" height="22.74"/></svg>