<svg id="Layer_2" data-name="Layer 2" xmlns="http://www.w3.org/2000/svg" viewBox="0 0 717.36 416.43"><defs><style>.cls-1{fill:#76923c;}.cls-2{fill:#1a6d57;opacity:0.24;}.cls-3{fill:#f2f2f1;}.cls-4{fill:#b8bcc1;}.cls-5{fill:#888c92;}.cls-6{fill:#1c3f44;}.cls-7{fill:#e4e4e4;}.cls-8{fill:#f7f7f6;}.cls-9{fill:#37646d;}</style></defs><title>biosykli</title><path class="cls-1" d="M278.92,55.59s-26.37,7.09-31.22-29.95C247.7,25.64,279.46,23.87,278.92,55.59Z"/><path class="cls-1" d="M277.86,55.68s19.86-2.28,16.62-29.61C294.48,26.07,271.79,33.58,277.86,55.68Z"/><path class="cls-1" d="M310.19,108.64s-17.44,4.69-20.65-19.81C289.54,88.83,310.55,87.66,310.19,108.64Z"/><path class="cls-1" d="M309.49,108.7s13.14-1.51,11-19.59C320.48,89.11,305.47,94.08,309.49,108.7Z"/><ellipse class="cls-2" cx="485.31" cy="378.07" rx="203.93" ry="18.08"/><ellipse class="cls-2" cx="213.05" cy="337.06" rx="203.93" ry="18.08"/><rect class="cls-3" x="260.65" y="64.01" width="20.52" height="273.73"/><rect class="cls-3" x="295.82" y="115.33" width="14.66" height="222.4"/><polygon class="cls-4" points="361.82 337.74 361.82 253.8 216.45 219.08 76.23 253.8 76.23 337.74 361.82 337.74"/><rect class="cls-5" x="37.6" y="253.64" width="38.63" height="84.1"/><polygon class="cls-6" points="219.02 219.08 179.64 219.08 37.6 253.64 76.23 253.64 219.02 219.08"/><path class="cls-7" d="M634,312.47c0,11.91,2.53,28.92,0,40.09-1.73,7.61-10.69,16.78-10.69,16.78L315.18,370s-9.15-9.29-11-17.45c-2.41-10.9,0-28.49,0-40.09,0-88.48,73.82-160.21,164.87-160.21S634,224,634,312.47Z"/><path class="cls-8" d="M632.83,312.64c0,11.91,2.54,28.92,0,40.09-1.73,7.61-10.69,16.78-10.69,16.78L468,369.84l0-217.42C559,152.42,632.83,224.15,632.83,312.64Z"/><path class="cls-3" d="M493.5,170.37l-13.68-17.54c-2.25-.41-10.73-.57-16.86-.41l-19,22.33A89.83,89.83,0,0,0,429,193l-8,12.86a103.19,103.19,0,0,0-15.5,54.39v98H530.38v-98a103.19,103.19,0,0,0-15.5-54.39l-8.83-18.42C502.73,182.07,498.09,174.67,493.5,170.37Z"/><rect class="cls-9" x="304.22" y="352.56" width="329.73" height="26.18"/><rect class="cls-3" x="247.28" y="274.69" width="17.27" height="17.27"/><rect class="cls-3" x="283.47" y="274.69" width="17.27" height="17.27"/><rect class="cls-3" x="104.5" y="274.69" width="17.27" height="17.27"/><rect class="cls-3" x="140.68" y="274.69" width="17.27" height="17.27"/><rect class="cls-3" x="176.87" y="274.69" width="17.27" height="17.27" transform="translate(468.83 97.83) rotate(90)"/><rect class="cls-3" x="213.05" y="274.69" width="17.27" height="17.27" transform="translate(505.02 61.64) rotate(90)"/></svg>