<svg id="Layer_2" data-name="Layer 2" xmlns="http://www.w3.org/2000/svg" xmlns:xlink="http://www.w3.org/1999/xlink" viewBox="0 0 1401.23 988.84"><defs><style>.cls-1{fill:#66686b;}.cls-2{fill:#afaa7b;}.cls-3{fill:#969274;}.cls-4{fill:#1a6d57;opacity:0.24;}.cls-5{fill:#888c92;}.cls-6{fill:#59d31a;}.cls-7{fill:#ceca93;}.cls-8{fill:#f2f2f1;}.cls-9{fill:#c5c7c9;}.cls-10{fill:#9d9fa3;}.cls-11{fill:#adafb2;}.cls-12{fill:#b8bcc1;}.cls-13{fill:#cececc;}.cls-14{fill:#aaa785;}.cls-15{fill:none;stroke:#66686b;stroke-miterlimit:10;stroke-width:2.57px;}.cls-16{fill:#7f4b3d;}.cls-17{fill:#a7634c;}.cls-18{fill:#222426;}.cls-19{fill:url(#linear-gradient);}</style><linearGradient id="linear-gradient" x1="76.4" y1="918.73" x2="218.51" y2="918.73" gradientUnits="userSpaceOnUse"><stop offset="0" stop-color="#4a4f54"/><stop offset="1" stop-color="#222426"/></linearGradient></defs><title>biosykli</title><rect class="cls-1" x="1147.91" y="114.9" width="25.49" height="337.7"/><rect class="cls-1" x="1184.77" y="210.52" width="8.51" height="131.77" transform="translate(-17.75 460.43) rotate(-21.76)"/><rect class="cls-1" x="1129.99" y="210.52" width="8.51" height="131.77" transform="translate(2085.23 953.56) rotate(-158.24)"/><rect class="cls-2" x="1004.32" y="428.29" width="63.22" height="503.34"/><rect class="cls-3" x="1013.23" y="439.99" width="44.1" height="302.19"/><ellipse class="cls-4" cx="749.33" cy="934.37" rx="630.97" ry="25.14"/><rect class="cls-5" x="912.61" y="744.39" width="418.76" height="187.24"/><path class="cls-6" d="M1159.68,88.07S1119.09,99,1111.64,42C1111.64,42,1160.51,39.25,1159.68,88.07Z"/><path class="cls-6" d="M1158.05,88.21s30.56-3.51,25.57-45.56C1183.62,42.65,1148.7,54.19,1158.05,88.21Z"/><path class="cls-6" d="M494.72,438.7s-40.59,10.92-48.05-46.08C446.67,392.62,495.55,389.89,494.72,438.7Z"/><path class="cls-6" d="M493.09,438.85s30.56-3.52,25.57-45.57C518.66,393.28,483.74,404.83,493.09,438.85Z"/><rect class="cls-7" x="1067.54" y="428.29" width="263.83" height="316.1"/><rect class="cls-8" x="1086.87" y="450.21" width="99.64" height="25.16"/><rect class="cls-8" x="1202.39" y="450.21" width="99.64" height="25.16"/><rect class="cls-8" x="1086.87" y="487.17" width="99.64" height="25.16"/><rect class="cls-8" x="1202.39" y="487.17" width="99.64" height="25.16"/><path class="cls-1" d="M1044.59,639,806,752.23,794,726.8l250.92-119.11,3.42,7.6a18.36,18.36,0,0,1,.12,14.81Z"/><path class="cls-1" d="M1038.67,721.62l-263.9,9.52-1-28.14,277.57-10,.14,8.34A18.37,18.37,0,0,1,1045.7,715Z"/><rect class="cls-9" x="753.2" y="484.23" width="168.75" height="447.4"/><rect class="cls-10" x="677.2" y="484.23" width="76.68" height="447.4"/><rect class="cls-8" x="804.43" y="518.03" width="99.64" height="25.16"/><rect class="cls-8" x="804.43" y="555" width="99.64" height="25.16"/><rect class="cls-8" x="804.43" y="599.06" width="99.64" height="25.16"/><rect class="cls-8" x="804.43" y="636.03" width="99.64" height="25.16"/><rect class="cls-11" x="581.96" y="676.02" width="447.4" height="63.81" transform="translate(1513.59 -97.73) rotate(90)"/><rect class="cls-5" x="773.75" y="484.23" width="12.23" height="447.4"/><rect class="cls-12" x="689.92" y="754.34" width="263.83" height="177.29"/><rect class="cls-5" x="626.7" y="754.34" width="63.22" height="177.29"/><rect class="cls-13" x="1100.69" y="334.62" width="158.5" height="93.83"/><rect class="cls-10" x="1062.7" y="334.62" width="37.98" height="93.83"/><rect class="cls-14" x="1079.33" y="439.99" width="238.98" height="304.4"/><rect class="cls-15" x="1086.87" y="450.21" width="216.56" height="94.92"/><rect class="cls-15" x="1086.87" y="545.44" width="216.56" height="94.92"/><rect class="cls-15" x="1086.87" y="640.37" width="216.56" height="94.92"/><path class="cls-13" d="M723,607.37,319.39,799l-20.43-43L723.48,554.41l5.8,12.87a31.06,31.06,0,0,1,.2,25.06Z"/><rect class="cls-12" x="264.04" y="754.34" width="263.83" height="177.29"/><rect class="cls-5" x="200.82" y="754.34" width="63.22" height="177.29"/><rect class="cls-16" x="473.66" y="475.36" width="41.83" height="410.23"/><rect class="cls-17" x="446.67" y="820.58" width="343.55" height="111.05"/><rect class="cls-16" x="364.35" y="820.58" width="82.33" height="111.05"/><polygon class="cls-18" points="274.12 932.11 247.62 936.06 227.79 944.87 212.98 936.06 198.58 938.49 152.67 940.01 133.47 934.54 129.92 926.95 136.39 921.79 151.83 911.76 159.76 893.24 174.37 891.72 195.24 889.9 201.92 900 212.56 895 229.67 895 234.05 895 250.54 901.44 259.93 913.59 276.41 917.53 281.84 923 278.5 927.56 274.33 930.29 274.12 932.11"/><polygon class="cls-19" points="83.62 933.95 108.41 937.46 126.96 945.27 140.82 937.46 154.29 939.61 197.23 940.96 215.19 936.11 218.51 929.37 212.46 924.79 198.01 915.9 190.59 899.46 176.93 898.11 157.41 896.49 148.82 892.18 141.21 901.02 125.2 901.02 121.1 901.02 105.68 906.73 96.9 917.51 81.48 921.02 76.4 925.87 79.52 929.91 83.43 932.34 83.62 933.95"/></svg>