<svg id="Layer_2" data-name="Layer 2" xmlns="http://www.w3.org/2000/svg" xmlns:xlink="http://www.w3.org/1999/xlink" viewBox="0 0 1123.46 550.33"><defs><style>.cls-1{fill:#7f4b3d;}.cls-2{fill:#512f27;}.cls-3{fill:#1a6d57;opacity:0.24;}.cls-4{fill:#59d31a;}.cls-5{fill:#909091;}.cls-6{fill:#b8bcc1;}.cls-7{fill:#f7f7f6;}.cls-8{fill:#a7634c;}.cls-9{fill:#85888c;}.cls-10{fill:#555759;}.cls-11{fill:url(#linear-gradient);}.cls-12{fill:#447bcc;}.cls-13{fill:url(#linear-gradient-2);}.cls-14{fill:#c07e60;}.cls-15{fill:#606060;}.cls-16{fill:#ffeed7;}.cls-17{fill:#8bc8e0;}.cls-18{fill:#ead9c5;}.cls-19{fill:#7dbacc;}.cls-20{fill:#474747;}.cls-21,.cls-22{fill:none;stroke:#474747;stroke-miterlimit:10;}.cls-21{stroke-width:4.81px;}.cls-22{stroke-width:4.41px;}</style><linearGradient id="linear-gradient" x1="764.93" y1="509.05" x2="1024.88" y2="509.05" gradientTransform="translate(16.47)" gradientUnits="userSpaceOnUse"><stop offset="0" stop-color="#b8bcc1"/><stop offset="1" stop-color="#f7f7f6"/></linearGradient><linearGradient id="linear-gradient-2" x1="487.36" y1="507.23" x2="747.31" y2="507.23" xlink:href="#linear-gradient"/></defs><title>biosykli</title><rect class="cls-1" x="756.72" y="197.09" width="290.8" height="70.74"/><rect class="cls-2" x="688.97" y="197.09" width="67.48" height="67.48"/><ellipse class="cls-3" cx="559.8" cy="445.99" rx="551.34" ry="21.07"/><ellipse class="cls-3" cx="766.6" cy="509.05" rx="336.23" ry="21.07"/><path class="cls-4" d="M639.18,141.6s-25.9,7-30.66-29.4C608.52,112.2,639.71,110.46,639.18,141.6Z"/><path class="cls-4" d="M638.14,141.7s19.49-2.25,16.31-29.08C654.45,112.62,632.17,120,638.14,141.7Z"/><rect class="cls-5" x="619.57" y="156.72" width="32.52" height="215.47"/><path class="cls-4" d="M577.89,56.14s-25.9,7-30.66-29.4C547.23,26.74,578.41,25,577.89,56.14Z"/><path class="cls-4" d="M576.84,56.23s19.5-2.24,16.32-29.07C593.16,27.16,570.88,34.53,576.84,56.23Z"/><rect class="cls-6" x="558.28" y="71.26" width="32.52" height="215.47"/><rect class="cls-7" x="614.31" y="264.28" width="455.18" height="98.25"/><rect class="cls-8" x="614.31" y="263.88" width="455.18" height="183.39"/><rect class="cls-1" x="505.24" y="263.88" width="109.08" height="183.39"/><rect class="cls-9" x="715.49" y="264.28" width="8.19" height="182.99"/><rect class="cls-10" x="551.58" y="263.88" width="8.19" height="182.99"/><rect class="cls-9" x="831.06" y="264.28" width="8.19" height="182.99"/><rect class="cls-9" x="946.62" y="264.28" width="8.19" height="182.99"/><rect class="cls-9" x="1062.19" y="264.28" width="8.19" height="182.99"/><path class="cls-11" d="M781.4,499.83v13.45c0,2.75,58.19,5,130,5s130-2.23,130-5V499.83Z"/><ellipse class="cls-12" cx="911.37" cy="499.68" rx="129.98" ry="4.98"/><path class="cls-13" d="M503.83,498v13.45c0,2.75,58.2,5,130,5s130-2.23,130-5V498Z"/><ellipse class="cls-12" cx="633.81" cy="497.86" rx="129.98" ry="4.98"/><rect class="cls-8" x="454.85" y="229.2" width="26.32" height="218.76"/><polygon class="cls-14" points="235.25 448.09 235.25 287.6 175 228.65 115.09 287.6 116.88 448.09 235.25 448.09"/><rect class="cls-8" x="59.3" y="290.07" width="57.58" height="158.03"/><polygon class="cls-15" points="176.07 228.65 120.15 228.65 59.3 290.07 114.91 290.07 176.07 228.65"/><polygon class="cls-14" points="573.36 448.09 572.95 287.6 509.54 228.65 448.38 287.6 448.79 448.09 573.36 448.09"/><polygon class="cls-15" points="509.61 228.65 440.19 228.65 373.59 292.14 446.27 292.14 509.61 228.65"/><rect class="cls-16" x="133.21" y="312.2" width="37.73" height="135.64"/><rect class="cls-17" x="137.49" y="316.57" width="29.33" height="44.86"/><rect class="cls-17" x="137.49" y="389.88" width="29.33" height="44.86"/><rect class="cls-18" x="93.99" y="312.2" width="16.06" height="135.64"/><rect class="cls-19" x="95.81" y="316.57" width="12.48" height="44.86"/><rect class="cls-16" x="164.43" y="251.16" width="17.91" height="43.62"/><rect class="cls-19" x="167.87" y="253.88" width="11.12" height="27.92"/><rect class="cls-16" x="501.91" y="251.16" width="17.91" height="43.62"/><rect class="cls-19" x="505.35" y="253.88" width="11.12" height="27.92"/><rect class="cls-19" x="95.81" y="389.88" width="12.48" height="44.86"/><rect class="cls-18" x="66.37" y="312.2" width="16.06" height="135.64"/><rect class="cls-19" x="68.19" y="316.57" width="12.48" height="44.86"/><rect class="cls-19" x="68.19" y="389.88" width="12.48" height="44.86"/><rect class="cls-16" x="188.7" y="312.2" width="37.73" height="135.64"/><rect class="cls-17" x="192.9" y="316.57" width="29.33" height="44.86"/><rect class="cls-17" x="192.9" y="389.88" width="29.33" height="44.86"/><polygon class="cls-14" points="229.86 448.09 456.04 448.09 456.04 291.41 229.86 292.31 229.86 448.09"/><polygon class="cls-20" points="409.47 257.85 446.24 287.6 446.95 293.1 236.94 294.79 235.25 288.72 204.31 257.32 409.47 257.85"/><rect class="cls-16" x="244.18" y="312.2" width="37.73" height="135.64"/><rect class="cls-17" x="248.46" y="316.57" width="29.33" height="44.86"/><rect class="cls-17" x="248.46" y="403" width="29.33" height="44.86"/><rect class="cls-16" x="299.67" y="312.2" width="37.73" height="135.64"/><rect class="cls-17" x="303.87" y="316.57" width="29.33" height="44.86"/><rect class="cls-17" x="303.87" y="389.88" width="29.33" height="44.86"/><rect class="cls-16" x="355.16" y="312.2" width="37.73" height="135.64"/><rect class="cls-17" x="359.43" y="316.57" width="29.33" height="44.86"/><rect class="cls-17" x="359.43" y="389.88" width="29.33" height="44.86"/><rect class="cls-16" x="410.64" y="312.2" width="37.73" height="135.64"/><rect class="cls-17" x="414.84" y="316.57" width="29.33" height="44.86"/><rect class="cls-17" x="414.84" y="403" width="29.33" height="44.86"/><rect class="cls-16" x="466.13" y="312.2" width="37.73" height="135.64"/><rect class="cls-17" x="470.41" y="316.57" width="29.33" height="44.86"/><rect class="cls-17" x="470.41" y="389.88" width="29.33" height="44.86"/><rect class="cls-16" x="521.62" y="311.44" width="37.73" height="135.64"/><rect class="cls-17" x="525.82" y="315.81" width="29.33" height="44.86"/><rect class="cls-17" x="525.82" y="389.13" width="29.33" height="44.86"/><line class="cls-21" x1="247.57" y1="292.34" x2="59.3" y2="292.34"/><line class="cls-22" x1="574.05" y1="292.14" x2="443.37" y2="292.14"/><rect class="cls-20" x="229.86" y="388.54" width="67.58" height="17.44"/><rect class="cls-20" x="289.86" y="402.93" width="3.54" height="46.07"/><rect class="cls-20" x="237.95" y="402.93" width="3.54" height="46.07"/><rect class="cls-20" x="395.72" y="388.54" width="67.58" height="17.44"/><rect class="cls-20" x="455.72" y="402.93" width="3.54" height="46.07"/><rect class="cls-20" x="403.81" y="402.93" width="3.54" height="46.07"/><rect class="cls-6" x="634.8" y="387.61" width="53.37" height="59.41"/><rect class="cls-6" x="750.71" y="387.61" width="53.37" height="59.41"/><rect class="cls-6" x="883.38" y="387.61" width="53.37" height="59.41"/><rect class="cls-6" x="999.28" y="387.61" width="53.37" height="59.41"/><rect class="cls-17" x="627.41" y="283.13" width="30.58" height="30.58"/><rect class="cls-17" x="672.02" y="283.13" width="30.58" height="30.58"/><rect class="cls-17" x="736.03" y="283.13" width="30.58" height="30.58"/><rect class="cls-17" x="780.64" y="283.13" width="30.58" height="30.58"/><rect class="cls-17" x="855.01" y="283.13" width="30.58" height="30.58"/><rect class="cls-17" x="899.63" y="283.13" width="30.58" height="30.58"/><rect class="cls-17" x="969.05" y="283.13" width="30.58" height="30.58"/><rect class="cls-17" x="1013.67" y="283.13" width="30.58" height="30.58"/><rect class="cls-17" x="772.59" y="213.36" width="68.43" height="19.11"/><rect class="cls-17" x="869.79" y="213.36" width="68.43" height="19.11"/><rect class="cls-17" x="966.98" y="213.36" width="68.43" height="19.11"/></svg>