<svg xmlns="http://www.w3.org/2000/svg" xmlns:xlink="http://www.w3.org/1999/xlink" viewBox="0 0 1119.24 283.58"><defs><style>.cls-1{fill:none;}.cls-2{isolation:isolate;}.cls-3{fill:#1a6d57;}.cls-15,.cls-3{opacity:0.24;}.cls-4{fill:#b8bcc1;}.cls-5{fill:#888c92;}.cls-6{fill:#f2f2f1;}.cls-7{fill:#95979b;}.cls-10,.cls-11,.cls-12,.cls-13,.cls-14,.cls-15,.cls-16,.cls-17,.cls-8{fill:#adafb2;}.cls-9{fill:url(#linear-gradient);}.cls-10{opacity:0.76;}.cls-11{opacity:0.62;}.cls-12{opacity:0.52;}.cls-13{opacity:0.47;}.cls-14{opacity:0.34;}.cls-16{opacity:0.15;}.cls-17{opacity:0.11;}.cls-18{fill:#14660e;}.cls-19{fill:#fff;}.cls-20{fill:#53894d;}.cls-21{fill:#4b4f4a;}.cls-22{fill:#4d801b;}.cls-23{fill:#3f710e;}.cls-24{clip-path:url(#clip-path);}.cls-25{fill:#616161;}.cls-26{fill:#434343;}.cls-27{fill:#ffe9dd;}.cls-28{fill:#543813;}.cls-29{fill:#132789;}.cls-30{fill:#179be5;}.cls-31{fill:#cce4ea;mix-blend-mode:multiply;}</style><linearGradient id="linear-gradient" x1="385.17" y1="154.62" x2="799" y2="154.62" gradientTransform="translate(16.47)" gradientUnits="userSpaceOnUse"><stop offset="0" stop-color="#b8bcc1"/><stop offset="1" stop-color="#f7f7f6"/></linearGradient><clipPath id="clip-path"><path class="cls-1" d="M790.75,208.35c1.23-.24,5.86.27,8.63.25.22,0,.65,4.65.75,4.89a.77.77,0,0,1,0,.4L800.1,222a1.77,1.77,0,0,1-.07.52c-.16.37-.64.95-1,1a68.32,68.32,0,0,1-13.89,0c-1.51-.1.53-5.28.89-6.6.43-1.57.43-1.57,1.64-5.18C788.75,208.49,790.74,208.35,790.75,208.35Z"/></clipPath></defs><title>biosykli</title><g class="cls-2"><g id="Layer_2" data-name="Layer 2"><ellipse class="cls-3" cx="613.28" cy="246.87" rx="255.07" ry="22.61"/><ellipse class="cls-3" cx="899.76" cy="213.79" rx="196.91" ry="17.45"/><ellipse class="cls-3" cx="238.29" cy="215.81" rx="196.91" ry="17.45"/><rect class="cls-4" x="760.01" y="95.6" width="275.77" height="124.17"/><rect class="cls-5" x="722.71" y="95.36" width="37.3" height="124.41"/><rect class="cls-6" x="794.65" y="166.34" width="16.68" height="16.68" transform="translate(1605.98 349.36) rotate(-180)"/><rect class="cls-6" x="759.71" y="166.34" width="16.68" height="16.68" transform="translate(1536.1 349.36) rotate(-180)"/><rect class="cls-7" x="944.47" y="150.13" width="57.93" height="70.71" transform="translate(1946.88 370.96) rotate(-180)"/><rect class="cls-7" x="827.7" y="150.13" width="57.93" height="70.71" transform="translate(1713.33 370.96) rotate(-180)"/><rect class="cls-6" x="988.44" y="119.97" width="27.75" height="8.34" transform="translate(2004.62 248.29) rotate(-180)"/><rect class="cls-6" x="946.03" y="119.97" width="27.75" height="8.34" transform="translate(1919.8 248.29) rotate(-180)"/><rect class="cls-6" x="903.62" y="119.97" width="27.75" height="8.34" transform="translate(1834.98 248.29) rotate(-180)"/><rect class="cls-6" x="861.21" y="119.97" width="27.75" height="8.34" transform="translate(1750.16 248.29) rotate(-180)"/><rect class="cls-6" x="818.8" y="119.97" width="27.75" height="8.34" transform="translate(1665.34 248.29) rotate(-180)"/><rect class="cls-6" x="94.92" y="18.73" width="321.35" height="197.73"/><rect class="cls-4" x="51.45" y="18.35" width="74.26" height="198.11"/><rect class="cls-8" x="177.69" y="147.55" width="57.93" height="70.71"/><rect class="cls-8" x="292.53" y="147.55" width="57.93" height="70.71"/><rect class="cls-6" x="179.53" y="88.39" width="27.75" height="8.34"/><rect class="cls-6" x="221.94" y="88.39" width="27.75" height="8.34"/><rect class="cls-6" x="264.35" y="88.39" width="27.75" height="8.34"/><rect class="cls-6" x="306.75" y="88.39" width="27.75" height="8.34"/><rect class="cls-6" x="349.16" y="88.39" width="27.75" height="8.34"/><rect class="cls-6" x="776.39" y="112.93" width="27.75" height="8.34" transform="translate(1580.52 234.21) rotate(-180)"/><path class="cls-9" d="M401.65,57.34V244c0,4.38,92.63,7.93,206.91,7.93s206.91-3.55,206.91-7.93V57.34Z"/><rect class="cls-8" x="342.87" y="150.17" width="189.83" height="5.89" transform="translate(590.9 -284.67) rotate(90)"/><rect class="cls-10" x="380.07" y="151.19" width="191.88" height="5.89" transform="translate(630.14 -321.88) rotate(90)"/><rect class="cls-10" x="417.81" y="151.67" width="192.85" height="5.89" transform="translate(668.85 -359.62) rotate(90)"/><rect class="cls-11" x="455.61" y="152.1" width="193.71" height="5.89" transform="translate(707.51 -397.41) rotate(90)"/><rect class="cls-12" x="493.83" y="152.1" width="193.71" height="5.89" transform="translate(745.73 -435.64) rotate(90)"/><rect class="cls-13" x="532.06" y="152.1" width="193.71" height="5.89" transform="translate(783.96 -473.86) rotate(90)"/><rect class="cls-14" x="570.28" y="152.1" width="193.71" height="5.89" transform="translate(822.18 -512.09) rotate(90)"/><rect class="cls-15" x="608.96" y="151.65" width="192.8" height="5.89" transform="translate(859.95 -550.77) rotate(90)"/><rect class="cls-16" x="647.69" y="151.15" width="191.8" height="5.89" transform="translate(897.68 -589.49) rotate(90)"/><rect class="cls-17" x="686.75" y="150.31" width="190.12" height="5.89" transform="translate(935.07 -628.55) rotate(90)"/><ellipse class="cls-5" cx="608.56" cy="57.09" rx="206.91" ry="7.93"/><circle class="cls-18" cx="724.58" cy="108.55" r="34.54"/><path class="cls-19" d="M705.83,122.78a9.06,9.06,0,0,0,.9,4.27,1.8,1.8,0,0,0,1,.79A4.83,4.83,0,0,0,709,128a17.48,17.48,0,0,0,3.86-.58,1.12,1.12,0,0,0,.56-.32,2.69,2.69,0,0,0,.56-.8,14.53,14.53,0,0,0,1.18-3.92,17.17,17.17,0,0,0,.21-4.81,27.54,27.54,0,0,0-3-9.31c-.74-1.5-1.45-3-2.08-4.57s-1.09-3.18-1.57-4.85a25.69,25.69,0,0,1-1-5.43,10.38,10.38,0,0,1,.37-3.55,6.63,6.63,0,0,1,1.24-2.35,5.7,5.7,0,0,1,2.74-1.77l.37-.1.25,0,.45-.06a7,7,0,0,1,.92-.08,11.73,11.73,0,0,1,1.87.1,9.9,9.9,0,0,1,3.38,1.23,12.63,12.63,0,0,1,4.32,4.39,20.73,20.73,0,0,1,2.88,10.2l-.65.2a47.19,47.19,0,0,0-6.21-7.17,9,9,0,0,0-3.15-1.9,3.87,3.87,0,0,0-1.3-.18,4,4,0,0,0-.59.08,1.67,1.67,0,0,0-.3.08l-.15,0-.06,0h.08a1.63,1.63,0,0,0,.72-.43c.17-.17.16-.23.14-.17a7.53,7.53,0,0,0-.14,1.33,33.72,33.72,0,0,0,.22,4.33c.16,1.55.44,3.13.61,4.75s.27,3.29.35,5a44.76,44.76,0,0,0,1.48,9.86c.44,1.62,1,3.22,1.53,5a12.23,12.23,0,0,1,.47,5.85,7,7,0,0,1-1.82,3.44,6.9,6.9,0,0,1-3.77,1.86,20.24,20.24,0,0,1-2.84.18,11.49,11.49,0,0,1-3.09-.43,7.17,7.17,0,0,1-3.14-1.77,5.4,5.4,0,0,1-1.56-3.33,6.48,6.48,0,0,1,.44-3,8,8,0,0,1,1.4-2.38Z"/><path class="cls-19" d="M724.92,110.12a91.94,91.94,0,0,1,4.38,8.6c.65,1.4,1.28,2.78,1.94,4.08s1.36,2.52,2,3.52c.31.49.6.9.81,1.19s.26.43.51.58a1.87,1.87,0,0,0,1.36-.21,2.84,2.84,0,0,0,1.3-1.12,7.7,7.7,0,0,0,1-4.17,17.62,17.62,0,0,0-.66-4.59c-.85-3-2.23-5.94-3.25-8.94s-2-6-2.88-9.18a37.79,37.79,0,0,1-1-4.89,24,24,0,0,1-.25-2.62,16.51,16.51,0,0,1,.09-2.94,9.77,9.77,0,0,1,.37-1.78,6.08,6.08,0,0,1,1.28-2.26,4.55,4.55,0,0,1,3-1.42,1.92,1.92,0,0,1,.9.08l.62.16a17,17,0,0,1,2.53.94,5.91,5.91,0,0,1,.67.33c.24.14.44.24.83.49l.2.15a1.44,1.44,0,0,1,.31.33,1,1,0,0,1,.13.91.89.89,0,0,1-.29.43.9.9,0,0,1-.61.2,2.51,2.51,0,0,1-.78-.14l-.17-.65a5.57,5.57,0,0,0,.36-.53c0-.07.08-.2-.11-.11a.63.63,0,0,0-.21.3.9.9,0,0,0,.1.77l.11.15s.09.08.09.09.07.07.06.08-.18.17-.33.25a5.05,5.05,0,0,1-.53.24c-.74.32-1.5.63-2.27.9l-.57.19c-.17.06-.51.13-.3.14a1.3,1.3,0,0,0,.89-.33c.22-.21.24-.24.26-.13s0,.34,0,.59a38,38,0,0,0,.7,4c.31,1.45.62,3,.91,4.5.55,3.09,1.1,6.26,1.56,9.48a72.23,72.23,0,0,1,.33,9.89c0,1.66,0,3.3,0,5a20.7,20.7,0,0,1-.65,5.21,7,7,0,0,1-1.48,2.72,6.1,6.1,0,0,1-2.86,1.95,5.2,5.2,0,0,1-2.12.16,6.06,6.06,0,0,1-2-.59,9,9,0,0,1-2.65-2.09,15.75,15.75,0,0,1-2.74-4.81,30.25,30.25,0,0,1-1.55-14.93Z"/><polygon class="cls-20" points="1036.18 221.81 1077.19 220.32 1076.61 204.21 1035.59 205.5 1036.18 221.81"/><polygon class="cls-18" points="1036.18 221.81 1020.75 219.95 1020.18 204.09 1035.59 205.5 1036.18 221.81"/><polygon class="cls-21" points="1076.61 204.21 1035.59 205.5 1020.18 204.09 1060.4 202.64 1076.61 204.21"/><polygon class="cls-18" points="671.78 264.33 731.67 262.16 730.82 238.63 670.92 240.52 671.78 264.33"/><polygon class="cls-20" points="671.78 264.33 649.26 261.62 648.42 238.46 670.92 240.52 671.78 264.33"/><polygon class="cls-21" points="730.82 238.63 670.92 240.52 648.42 238.46 707.16 236.33 730.82 238.63"/><polygon class="cls-18" points="546.66 263.26 606.55 261.1 605.69 237.56 545.8 239.46 546.66 263.26"/><polygon class="cls-20" points="546.66 263.26 524.13 260.56 523.29 237.39 545.8 239.46 546.66 263.26"/><polygon class="cls-21" points="605.69 237.56 545.8 239.46 523.29 237.39 582.03 235.27 605.69 237.56"/><polygon class="cls-18" points="78.19 223.82 119.2 222.34 118.62 206.22 77.6 207.52 78.19 223.82"/><polygon class="cls-20" points="78.19 223.82 62.77 221.97 62.19 206.1 77.6 207.52 78.19 223.82"/><polygon class="cls-21" points="118.62 206.22 77.6 207.52 62.19 206.1 102.42 204.65 118.62 206.22"/><polygon class="cls-18" points="1056.05 230.65 1097.06 229.17 1096.47 213.05 1055.46 214.35 1056.05 230.65"/><polygon class="cls-20" points="1056.05 230.65 1040.62 228.8 1040.05 212.94 1055.46 214.35 1056.05 230.65"/><polygon class="cls-21" points="1096.47 213.05 1055.46 214.35 1040.05 212.94 1080.27 211.48 1096.47 213.05"/><polygon class="cls-18" points="99.39 231.61 140.41 230.12 139.82 214.01 98.8 215.3 99.39 231.61"/><polygon class="cls-20" points="99.39 231.61 83.97 229.75 83.39 213.89 98.8 215.3 99.39 231.61"/><polygon class="cls-21" points="139.82 214.01 98.8 215.3 83.39 213.89 123.62 212.43 139.82 214.01"/><rect class="cls-5" x="163.7" y="114.56" width="197.92" height="5.89" transform="translate(380.16 -145.15) rotate(90)"/><rect class="cls-5" x="275.23" y="114.56" width="197.92" height="5.89" transform="translate(491.69 -256.68) rotate(90)"/><rect class="cls-5" x="56.34" y="114.56" width="197.92" height="5.89" transform="translate(272.8 -37.79) rotate(90)"/><rect class="cls-15" x="269.86" y="-100.04" width="2.26" height="290.55" transform="translate(316.22 -225.76) rotate(90)"/><rect class="cls-15" x="262.55" y="-53.59" width="2.26" height="275.93" transform="translate(348.06 -179.3) rotate(90)"/><rect class="cls-15" x="262.55" y="-16.03" width="2.26" height="275.93" transform="translate(385.61 -141.74) rotate(90)"/><rect class="cls-15" x="262.55" y="25.88" width="2.26" height="275.93" transform="translate(427.52 -99.83) rotate(90)"/><rect class="cls-15" x="262.55" y="60.67" width="2.26" height="275.93" transform="translate(462.32 -65.04) rotate(90)"/><polygon class="cls-18" points="1024.26 237.37 1065.28 235.89 1064.69 219.77 1023.67 221.07 1024.26 237.37"/><polygon class="cls-20" points="1024.26 237.37 1008.84 235.52 1008.26 219.66 1023.67 221.07 1024.26 237.37"/><polygon class="cls-21" points="1064.69 219.77 1023.67 221.07 1008.26 219.66 1048.49 218.2 1064.69 219.77"/><polygon class="cls-18" points="25.09 242.85 66.1 241.36 65.52 225.25 24.5 226.54 25.09 242.85"/><polygon class="cls-20" points="25.09 242.85 9.66 240.99 9.09 225.13 24.5 226.54 25.09 242.85"/><polygon class="cls-21" points="65.52 225.25 24.5 226.54 9.09 225.13 49.31 223.67 65.52 225.25"/><path class="cls-22" d="M401,241.12V210.34s-2.86-3.08-6.55-1.15c-2.09,1.1-3.28,5.41-1,7.54,0,0-3.44,0-2.79,2.78,0,0-2-1.64-3.44-.16s.66,3.11.66,3.11-2.19.76-1.18,2.51a1.94,1.94,0,0,0-2.26-.87s.47-3.61-2.47-3.61-5.23,2.79-3.92,5.41c0,0-2.78,1.31-1.47,2.94,0,0-.49-1.63-2.78-1.14a3.89,3.89,0,0,0-3.12-4.26s.17-4.58-3.76-6.22-5.57-.17-5.57-.17a2.83,2.83,0,0,0-3.11-1.47c-2.13.49-1.64,2.95-1.64,2.95a3.36,3.36,0,0,0-3.11.82c-1.15,1.31,0,4.25,0,4.25A2.22,2.22,0,0,0,351,225a3.3,3.3,0,0,0-3.77-1.69c-2.62.65-2.12,3.6-2.12,3.6s-.66-.49-2.13.16-1,2.62-1,2.62-2.29-1.47-3.6-.65a4.34,4.34,0,0,0-1.64,2.62,6.46,6.46,0,0,0-4.09-1.24,3.55,3.55,0,0,0-2.78,2.39s-1.15-1.48-2.13-.82-2,3.76-2,3.76a5.2,5.2,0,0,0-3.6,1.15,4.06,4.06,0,0,0-1.31,2.62s-4.59,0-4.59,1.63Z"/><path class="cls-23" d="M337.19,240.56a5.24,5.24,0,0,1,5.84-.62,4.93,4.93,0,0,1,8.78-.77,2.4,2.4,0,0,1,3.69-1,2,2,0,0,1,3.78-.9,5,5,0,1,1,9.66-.12,2.44,2.44,0,0,1,3.95-.21,3.7,3.7,0,0,1,6.34,0,4.81,4.81,0,0,1,8.95-2.25,3.49,3.49,0,0,1,6-3.12,7.06,7.06,0,0,1-.23-3.89,3.6,3.6,0,0,1,1.22-2.13,1.85,1.85,0,0,1,2.3,0,5.25,5.25,0,0,1-.38-7.08,5.09,5.09,0,0,1,3.91-1.63v24.25H336.55C336.75,240.93,337,240.74,337.19,240.56Z"/><circle cx="885.86" cy="245.26" r="8.21"/><circle cx="903.45" cy="245.7" r="8.21"/><path class="cls-4" d="M805.14,226.06c3,.41,1-23.28-.77-23.33l-10.9-.29c-1.79-.05-12.75,6.32-12.79,8.11L780,236.21c0,1.8,14.46,6,16.25,6.1l118.54,2.48a3.28,3.28,0,0,0,3.35-3.18Zm-5.89-2.72-4.45.41-5.14,0-3.59-.25-.89-.11c-1-.74-.85-1.83-.73-3.11l.17-.77a10.34,10.34,0,0,1,1.79-5.33l1.57-2.37a10.93,10.93,0,0,1,1.61-1.92l1.5-1.53a7.74,7.74,0,0,1,1.73-1.14l.49-.27a10.56,10.56,0,0,1,4.16-.77l1.83,0c.57,0,.84.45.86,1l0,5,0,9.77C800.08,222.63,799.93,223.24,799.25,223.34Z"/><circle cx="807.96" cy="243.32" r="8.21"/><circle class="cls-4" cx="807.83" cy="243.47" r="3.2"/><circle class="cls-4" cx="885.21" cy="245.4" r="3.2"/><circle class="cls-4" cx="903.44" cy="245.86" r="3.2"/><path class="cls-18" d="M914.05,243.14l-98.25-2.46c-3.88-.09-7-2.2-10.88-5.93l1-38.38c-.31,0,7.16-.39,11-.29l98.25,2.45a7.32,7.32,0,0,1,6.86,7.69l-.77,30.93C921.14,241.28,917.92,243.23,914.05,243.14Z"/><g class="cls-24"><path class="cls-25" d="M786.85,220.47a2.19,2.19,0,0,1,1.58.17,1.7,1.7,0,0,1,.5.57,15.83,15.83,0,0,1,1.62,3.24,8.23,8.23,0,0,1-2.22.26l-2.71,0a2.92,2.92,0,0,1-1-.08,2.31,2.31,0,0,1-1.28-1.89c-.18-.81-.17-1.28.69-1.57A16.5,16.5,0,0,1,786.85,220.47Z"/><path class="cls-26" d="M790.33,222.62a3.74,3.74,0,0,1-.8-1.59c-.08-.32-.15-.65-.2-1a1.49,1.49,0,0,0-.21-.76.3.3,0,0,0-.51.08,1.34,1.34,0,0,0,0,.84c.07.37.14.74.22,1.11a5.49,5.49,0,0,0,.81,1.81.18.18,0,0,0,.19.08l.06,0,.14,0A.37.37,0,0,0,790.33,222.62Z"/><path class="cls-27" d="M798.27,215a.35.35,0,0,0-.06-.14l-.81-1.41a1.46,1.46,0,0,0-.8-.8c-.5-.14-1,.26-1.47.53a14.19,14.19,0,0,1,.22,2,4.56,4.56,0,0,0,.13,1.11,1.22,1.22,0,0,0,.66.82,1.5,1.5,0,0,0,1.62-.71,3,3,0,0,0,.51-1.2A.75.75,0,0,0,798.27,215Z"/><path class="cls-28" d="M797.4,214.87a.4.4,0,0,1,.23-.34.28.28,0,0,1,.36.13c.06.16,0,.34-.11.5a1.86,1.86,0,0,0,.42,1.56,3.19,3.19,0,0,1,.64-1.08c.21-.25.49-.5.5-.83,0-.17-.07-.34-.06-.52s.17-.47.16-.71a.88.88,0,0,0-.4-.64,5.51,5.51,0,0,0-1.54-.93.8.8,0,0,1-.42-.29,1.06,1.06,0,0,0-.09-.25c-.09-.12-.27-.11-.43-.1a3.9,3.9,0,0,0-1.38.35,1.44,1.44,0,0,1-.33.16c-.23.05-.46-.09-.7-.06a.73.73,0,0,0-.53.55,1.71,1.71,0,0,0,0,.78l.51.11a.73.73,0,0,0,.1.73,1.66,1.66,0,0,0,.9-.34,1.2,1.2,0,0,1,.58-.32c.23,0,.4.16.59.28s.47.17.61,0A2.91,2.91,0,0,1,797.4,214.87Z"/><path class="cls-29" d="M793.74,228.92c.36-2.56.61-5.11.72-7.67a6.45,6.45,0,0,1,.18-1.32,6.94,6.94,0,0,1,.27-1.09c.17-.52.41-1.2,1-1.38s.9.19,1.25.38a4.46,4.46,0,0,1,2.15,3.12,4.93,4.93,0,0,1,0,.94c0,.85,0,1.7-.11,2.54-.11,1.1-.31,2.17-.52,3.25a10.52,10.52,0,0,1-.26,1.11l0,.36c-1.43,0-2.51.36-3.93.37a1.3,1.3,0,0,1-.49-.06C793.71,229.36,793.71,229.12,793.74,228.92Z"/><path class="cls-27" d="M789.51,222.16l.26,0,.69,0s.07,0,.08,0a.13.13,0,0,0,0-.06,1.54,1.54,0,0,0-.15-.35.51.51,0,0,0-.2-.21.67.67,0,0,0-.31,0,1.09,1.09,0,0,1-.57-.2.09.09,0,0,0,0,.13.29.29,0,0,0,.11.11c-.11,0-.24,0-.3,0a2,2,0,0,0-.26.05.09.09,0,0,0-.06,0s0,.13.07.18A1.78,1.78,0,0,0,789.51,222.16Z"/><path class="cls-30" d="M790.22,221.48a.13.13,0,0,1,.09,0c1.26-.26,2.65-.31,3.62-1.13.66-.56,1.07-1.43,1.69-2a1,1,0,0,1,.51-.3.7.7,0,0,1,.64.22,1.13,1.13,0,0,1,.27.83,1.8,1.8,0,0,1-.27.7,16.43,16.43,0,0,1-1.2,1.64,3.54,3.54,0,0,1-.62.66,3.5,3.5,0,0,1-2.29.45,19.17,19.17,0,0,1-2.36-.27l-.09-.57A.21.21,0,0,1,790.22,221.48Z"/></g><path class="cls-31" d="M790.53,208.92c2.68-2.86,6-2.74,8.91-2.75a.58.58,0,0,1,.64.48,3.12,3.12,0,0,1,0,.69l0,14.3a4.58,4.58,0,0,1-.07.92.93.93,0,0,1-.93.79,58.48,58.48,0,0,1-13.93.07c-1.6-.2-.43-6.74.64-8.39a26.72,26.72,0,0,1,4.69-6.07Z"/></g></g></svg>