<svg id="Layer_2" data-name="Layer 2" xmlns="http://www.w3.org/2000/svg" xmlns:xlink="http://www.w3.org/1999/xlink" viewBox="0 0 1047.4 613.4"><defs><style>.cls-1{fill:#1a6d57;opacity:0.24;}.cls-2{fill:#59d31a;}.cls-3{fill:#b8bcc1;}.cls-4{fill:#f7f7f6;}.cls-5{fill:#d05e1e;}.cls-6{fill:#b04f19;}.cls-7{fill:#e4e4e4;}.cls-8{fill:#85888c;}.cls-9{fill:#555759;}.cls-10{fill:url(#linear-gradient);}</style><linearGradient id="linear-gradient" x1="250.71" y1="522.82" x2="250.71" y2="435.14" gradientUnits="userSpaceOnUse"><stop offset="0" stop-color="#b8bcc1"/><stop offset="1" stop-color="#f7f7f6"/></linearGradient></defs><title>biosykli</title><ellipse class="cls-1" cx="532.67" cy="519.24" rx="484.76" ry="25.14"/><path class="cls-2" d="M929.78,137.81s-40.59,10.92-48-46.08C881.73,91.73,930.61,89,929.78,137.81Z"/><path class="cls-2" d="M928.15,138s30.55-3.52,25.57-45.57C953.72,92.39,918.8,103.94,928.15,138Z"/><rect class="cls-3" x="899.05" y="161.51" width="50.97" height="337.7"/><rect class="cls-4" x="424.69" y="302.44" width="543.06" height="117.22"/><rect class="cls-5" x="424.69" y="403.55" width="543.06" height="117.22"/><rect class="cls-6" x="294.55" y="403.55" width="130.14" height="117.22"/><rect class="cls-7" x="294.55" y="302.44" width="130.14" height="101.11"/><rect class="cls-3" x="711.15" y="324.36" width="93.21" height="19.87"/><rect class="cls-3" x="847.2" y="324.36" width="93.21" height="19.87"/><rect class="cls-3" x="575.26" y="324.36" width="92.93" height="19.87"/><rect class="cls-3" x="439.37" y="324.36" width="93.3" height="19.87"/><rect class="cls-8" x="545.4" y="302.44" width="9.77" height="218.32"/><rect class="cls-9" x="349.85" y="301.96" width="9.77" height="218.32"/><rect class="cls-8" x="683.28" y="302.44" width="9.77" height="218.32"/><rect class="cls-8" x="821.16" y="302.44" width="9.77" height="218.32"/><rect class="cls-8" x="959.04" y="302.44" width="9.77" height="218.32"/><rect class="cls-4" x="718.15" y="433.1" width="82.61" height="87.85"/><rect class="cls-4" x="580.42" y="433.1" width="82.61" height="87.85"/><polygon class="cls-3" points="256.9 459.74 248.74 452.35 353.08 336.75 352.69 353.59 256.9 459.74"/><path class="cls-10" d="M134.08,435.14v.4c-11,2.86-19.44,21.21-19.44,43.44s8.46,40.58,19.44,43.44v.4H386.79V435.14Z"/><ellipse class="cls-7" cx="385.81" cy="478.98" rx="22.43" ry="43.84"/></svg>