<svg id="Layer_2" data-name="Layer 2" xmlns="http://www.w3.org/2000/svg" xmlns:xlink="http://www.w3.org/1999/xlink" viewBox="0 0 850.39 391.93"><defs><style>.cls-1{fill:none;}.cls-2{fill:#fff;}.cls-2,.cls-3{stroke:#e3e3e3;stroke-miterlimit:10;}.cls-3{fill:#f2f2f2;}.cls-4{clip-path:url(#clip-path);}.cls-5{fill:#0a7d61;}.cls-6{fill:#b8bcc1;}.cls-7{clip-path:url(#clip-path-2);}.cls-8{fill:#0da37f;}.cls-9{fill:#e4e4e4;}.cls-10{fill:#666;}.cls-11{fill:#8d9094;}.cls-12{fill:#222426;}.cls-13{fill:url(#linear-gradient);}.cls-14{fill:url(#linear-gradient-2);}</style><clipPath id="clip-path"><rect class="cls-1" x="37.77" y="52.52" width="149.51" height="257.21"/></clipPath><clipPath id="clip-path-2"><rect class="cls-1" x="197.32" y="75.85" width="434.73" height="197.09"/></clipPath><linearGradient id="linear-gradient" x1="435.31" y1="304.1" x2="690.97" y2="304.1" gradientUnits="userSpaceOnUse"><stop offset="0" stop-color="#4a4f54"/><stop offset="1" stop-color="#222426"/></linearGradient><linearGradient id="linear-gradient-2" x1="115.9" y1="310.77" x2="281.67" y2="310.77" xlink:href="#linear-gradient"/></defs><title>biosykli</title><path class="cls-2" d="M186.92,255.68l451.71,4.5v-117a47.47,47.47,0,0,0-47.47-47.47H186.92Z"/><path class="cls-3" d="M125.33,95.75h61.59a0,0,0,0,1,0,0V308.23a0,0,0,0,1,0,0H74.8a0,0,0,0,1,0,0v-162A50.53,50.53,0,0,1,125.33,95.75Z"/><g class="cls-4"><rect class="cls-5" x="91.83" y="125.4" width="85.59" height="250.12" rx="41.74"/></g><rect class="cls-6" x="74.8" y="201.63" width="112.48" height="108.11"/><g class="cls-7"><rect class="cls-8" x="203.7" y="125.28" width="416.5" height="209.61" rx="39.61"/></g><rect class="cls-9" x="186.92" y="201.63" width="452.37" height="108.11"/><rect class="cls-10" x="368.38" y="240.51" width="66.93" height="69.23"/><rect class="cls-6" x="186.92" y="195.23" width="455.49" height="9.76"/><rect class="cls-11" x="71.81" y="195.23" width="115.11" height="9.76"/><polygon class="cls-12" points="791.01 322.75 743.33 328.25 707.67 340.52 681.01 328.25 655.11 331.63 572.52 333.75 537.98 326.13 531.6 315.56 543.24 308.37 571.02 294.41 585.28 268.6 611.56 266.49 649.11 263.95 661.12 278.01 680.26 271.05 711.05 271.05 718.93 271.05 748.59 280.02 765.48 296.94 795.14 302.44 804.9 310.06 798.89 316.4 791.39 320.21 791.01 322.75"/><polygon class="cls-13" points="448.31 325.31 492.9 330.19 526.27 341.08 551.2 330.19 575.43 333.2 652.69 335.08 685 328.32 690.97 318.93 680.08 312.55 654.1 300.16 640.75 277.26 616.17 275.38 581.05 273.13 565.6 267.13 551.9 279.44 523.11 279.44 515.73 279.44 487.99 287.4 472.19 302.42 444.44 307.3 435.31 314.05 440.93 319.68 447.95 323.06 448.31 325.31"/><polygon class="cls-12" points="346.55 322.86 315.63 326.42 292.5 334.38 275.22 326.42 258.42 328.62 204.87 329.99 182.47 325.05 178.33 318.19 185.88 313.53 203.89 304.48 213.14 287.74 230.19 286.37 254.53 284.73 262.32 293.85 274.73 289.33 294.69 289.33 299.81 289.33 319.04 295.15 329.99 306.12 349.22 309.69 355.55 314.63 351.66 318.74 346.79 321.21 346.55 322.86"/><polygon class="cls-14" points="124.32 324.52 153.24 327.69 174.88 334.74 191.04 327.69 206.75 329.63 256.85 330.85 277.8 326.47 281.67 320.38 274.62 316.24 257.76 308.21 249.11 293.36 233.17 292.14 210.4 290.68 200.38 286.79 191.5 294.77 172.82 294.77 168.04 294.77 150.05 299.93 139.81 309.67 121.82 312.83 115.9 317.22 119.54 320.87 124.09 323.06 124.32 324.52"/></svg>